<?xml version="1.0" encoding="UTF-8" standalone="no"?>
<svg
   xmlns:dc="http://purl.org/dc/elements/1.1/"
   xmlns:cc="http://creativecommons.org/ns#"
   xmlns:rdf="http://www.w3.org/1999/02/22-rdf-syntax-ns#"
   xmlns:svg="http://www.w3.org/2000/svg"
   xmlns="http://www.w3.org/2000/svg"
   xmlns:xlink="http://www.w3.org/1999/xlink"
   xmlns:sodipodi="http://sodipodi.sourceforge.net/DTD/sodipodi-0.dtd"
   xmlns:inkscape="http://www.inkscape.org/namespaces/inkscape"
   height="684"
   width="452"
   version="1.1"
   id="svg21"
   sodipodi:docname="Soccer_Field_Transparant.svg"
   inkscape:version="0.92.4 (5da689c313, 2019-01-14)">
  <metadata
     id="metadata27">
    <rdf:RDF>
      <cc:Work
         rdf:about="">
        <dc:format>image/svg+xml</dc:format>
        <dc:type
           rdf:resource="http://purl.org/dc/dcmitype/StillImage" />
      </cc:Work>
    </rdf:RDF>
  </metadata>
  <defs
     id="defs25" />
  <sodipodi:namedview
     pagecolor="#ffffff"
     bordercolor="#666666"
     borderopacity="1"
     objecttolerance="10"
     gridtolerance="10"
     guidetolerance="10"
     inkscape:pageopacity="0"
     inkscape:pageshadow="2"
     inkscape:window-width="1920"
     inkscape:window-height="986"
     id="namedview23"
     showgrid="false"
     inkscape:zoom="0.34502924"
     inkscape:cx="226"
     inkscape:cy="342"
     inkscape:window-x="-11"
     inkscape:window-y="-11"
     inkscape:window-maximized="1"
     inkscape:current-layer="svg21" />
  <g
     id="g860"
     transform="matrix(1,0,0,0.75745763,0,71.356274)">
    <g
       id="g847">
      <rect
         style="opacity:0.7;fill:#00bb00"
         y="0"
         x="0"
         height="684"
         width="452"
         ry="6"
         id="rect2" />
      <g
         id="g19"
         style="fill:none;stroke:#eeffee;stroke-width:3">
        <path
           d="m 11.22,22.62 v 638.8 h 429.6 V 22.62 Z"
           id="path4"
           inkscape:connector-curvature="0" />
        <path
           d="m 11.26,342 h 429.4"
           id="path6"
           inkscape:connector-curvature="0" />
        <circle
           cy="342"
           cx="226"
           r="54.799999"
           id="circle8" />
        <circle
           cy="342"
           cx="226"
           r="2"
           id="circle10" />
        <g
           id="a">
          <path
             d="m 9.9,30.07 c 4.85,0 8.82,-4 8.82,-8.9 m 162.5,100.8 a 54.91,54.91 0 0 0 89.6,0 m 76.3,-99.63 v 99.63 h -242.2 l 0.2,-99.63 m 98.6,0.2 V 6.94 l 44.6,0.003 v 15.6 m -77.9,-0.2 v 34.4 h 111.2 v -34.4 m 160.5,7.7 c -4.9,0 -8.8,-4 -8.8,-8.9"
             id="path12"
             inkscape:connector-curvature="0" />
          <circle
             cy="90"
             cx="226"
             r="2"
             id="circle14" />
        </g>
        <use
           xlink:href="#a"
           transform="scale(1,-1)"
           y="-684"
           id="use17"
           x="0"
           width="100%"
           height="100%" />
      </g>
    </g>
  </g>
</svg>
